<svg xmlns="http://www.w3.org/2000/svg" xmlns:xlink="http://www.w3.org/1999/xlink" viewBox="0 0 800 800" width="800" height="800" preserveAspectRatio="xMidYMid meet" style="width: 100%; height: 100%; transform: translate3d(0px, 0px, 0px); content-visibility: visible;"><defs><clipPath id="__lottie_element_643"><rect width="800" height="800" x="0" y="0"></rect></clipPath></defs><g clip-path="url(#__lottie_element_643)"><g transform="matrix(1.0462700128555298,0,0,1.084779977798462,407,397)" opacity="1" style="display: block;"><g opacity="1" transform="matrix(0.8982300162315369,0,0,0.8607699871063232,-7.2769999504089355,-10.07800006866455)"><path stroke-linecap="round" stroke-linejoin="round" fill-opacity="0" stroke="rgb(232,133,52)" stroke-opacity="1" stroke-width="9.690147639216992" d=" M-239.22300720214844,26.874000549316406 C-245.41000366210938,18.33300018310547 -248.72300720214844,9.317999839782715 -248.72300720214844,0 C-248.72250366210938,-54.04315185546875 -137.2699432373047,-97.9219970703125 0,-97.9219970703125 C0,-97.9219970703125 0,-97.9219970703125 0,-97.9219970703125 C9.13599967956543,-97.9219970703125 18.158000946044922,-97.72799682617188 27.040000915527344,-97.3489990234375"></path></g></g><g transform="matrix(0.5240835547447205,-0.905548095703125,0.9388785362243652,0.5433734655380249,413,385)" opacity="1" style="display: block;"><g opacity="1" transform="matrix(0.8982300162315369,0,0,0.8607699871063232,-7.2769999504089355,-10.07800006866455)"><path stroke-linecap="round" stroke-linejoin="round" fill-opacity="0" stroke="rgb(248,202,82)" stroke-opacity="1" stroke-width="12.37476554277429" d=" M-159.12399291992188,75.23799896240234 C-213.86300659179688,57.26900100708008 -248.72300720214844,30.224000930786133 -248.72300720214844,0 C-248.72300720214844,-46.61199951171875 -165.81300354003906,-85.66300201416016 -54.93899917602539,-95.52100372314453"></path></g></g><g transform="matrix(-0.5316985845565796,-0.9010979533195496,0.934264600276947,-0.5512687563896179,406,375)" opacity="1" style="display: block;"><g opacity="1" transform="matrix(0.8982300162315369,0,0,0.8607699871063232,-6.2769999504089355,-10.07800006866455)"><path stroke-linecap="round" stroke-linejoin="round" fill-opacity="0" stroke="rgb(244,167,61)" stroke-opacity="1" stroke-width="19.50655858613065" d=" M-114.5479965209961,-86.9260025024414 C-80.25700378417969,-93.95099639892578 -41.297000885009766,-97.9219970703125 0,-97.9219970703125 C0,-97.9219970703125 0,-97.9219970703125 0,-97.9219970703125 C24.85300064086914,-97.9219970703125 48.85900115966797,-96.48400115966797 71.51100158691406,-93.80699920654297"></path></g></g><g transform="matrix(1.1971999406814575,0,0,1.1971999406814575,416.6390380859375,416.36798095703125)" opacity="1" style="display: block;"><g opacity="1" transform="matrix(1.1544681787490845,0,0,1.1544681787490845,-14.32800006866455,-25.327999114990234)"><path fill="rgb(232,133,52)" fill-opacity="1" d=" M0,-38.672000885009766 C21.343076705932617,-38.672000885009766 38.672000885009766,-21.343076705932617 38.672000885009766,0 C38.672000885009766,21.343076705932617 21.343076705932617,38.672000885009766 0,38.672000885009766 C-21.343076705932617,38.672000885009766 -38.672000885009766,21.343076705932617 -38.672000885009766,0 C-38.672000885009766,-21.343076705932617 -21.343076705932617,-38.672000885009766 0,-38.672000885009766z"></path><path stroke-linecap="butt" stroke-linejoin="miter" fill-opacity="0" stroke-miterlimit="4" stroke="rgb(215,215,215)" stroke-opacity="1" stroke-width="0" d=" M0,-38.672000885009766 C21.343076705932617,-38.672000885009766 38.672000885009766,-21.343076705932617 38.672000885009766,0 C38.672000885009766,21.343076705932617 21.343076705932617,38.672000885009766 0,38.672000885009766 C-21.343076705932617,38.672000885009766 -38.672000885009766,21.343076705932617 -38.672000885009766,0 C-38.672000885009766,-21.343076705932617 -21.343076705932617,-38.672000885009766 0,-38.672000885009766z"></path></g></g></g></svg>